<?xml version="1.0" encoding="UTF-8" standalone="no"?>
<!DOCTYPE svg PUBLIC "-//W3C//DTD SVG 1.1//EN" "http://www.w3.org/Graphics/SVG/1.1/DTD/svg11.dtd">
<svg width="100%" height="100%" viewBox="0 0 2000 2000" version="1.1" xmlns="http://www.w3.org/2000/svg" xmlns:xlink="http://www.w3.org/1999/xlink" xml:space="preserve" xmlns:serif="http://www.serif.com/" style="fill-rule:evenodd;clip-rule:evenodd;stroke-linejoin:round;stroke-miterlimit:2;">
    <g id="g1" transform="matrix(8.464779,0,0,8.464779,-1469.52531,1.505208)">
        <path id="path1" d="M402.403,118.159C402.403,179.743 352.343,230.418 291.507,230.418C230.671,230.418 180.611,179.743 180.611,118.159C180.611,56.576 230.671,5.9 291.507,5.9C352.343,5.9 402.403,56.576 402.403,118.159Z" style="fill:white;fill-rule:nonzero;"/>
        <g id="g22" transform="matrix(8.5,0,0,8.5,-4.9555,-19.2695)">
            <g id="g20">
                <g id="g16">
                    <path id="path14" d="M34.908,2.267C27.24,2.267 21.031,8.477 21.031,16.144C21.031,23.807 27.24,30.022 34.908,30.022C42.572,30.022 48.78,23.807 48.78,16.144C48.78,8.477 42.572,2.267 34.908,2.267ZM34.908,4.714C38.362,4.714 41.451,6.249 43.539,8.66L39.559,8.66L39.917,7.91C40.319,7.035 38.759,6.263 38.306,7.231L37.588,8.66L26.278,8.66C28.36,6.236 31.455,4.714 34.908,4.714ZM23.478,16.131C23.478,13.944 24.095,11.88 25.164,10.137C25.164,10.137 35.733,10.602 35.847,10.602C35.953,10.602 36.104,10.641 36.192,10.835C36.275,11.03 37.237,13.307 37.306,13.44C37.357,13.564 37.357,13.797 36.941,13.797L26.637,13.797C25.927,13.797 25.36,14.362 25.36,15.073L25.36,18.936C25.36,19.244 25.447,19.516 25.618,19.723C25.902,20.056 26.392,20.227 26.481,20.264C26.613,20.314 26.638,20.227 26.638,20.15L26.638,15.225C26.638,15.101 26.713,15.037 26.808,15.037L27.927,15.037C27.952,15.037 28.078,15.037 27.991,15.175C27.645,15.704 27.462,16.208 27.462,17.109C27.462,18.505 28.494,19.467 28.827,19.698C28.865,19.725 28.915,19.812 28.851,19.945C28.789,20.073 27.845,21.952 27.807,22.021C27.757,22.122 27.72,22.236 27.846,22.368L32.86,27.356C27.522,26.4 23.478,21.75 23.478,16.131ZM35.487,27.545C35.487,27.545 30.668,22.712 30.335,22.38C30.215,22.266 30.31,22.172 30.36,22.071C30.41,21.97 32.096,18.786 32.166,18.63C32.242,18.472 32.393,18.448 32.417,18.448L33.555,18.448C33.58,18.448 33.719,18.461 33.644,18.618C33.569,18.775 32.071,21.763 32.033,21.838C31.995,21.913 32.009,22.02 32.071,22.085C32.134,22.147 37.292,27.3 37.292,27.3C36.708,27.431 36.104,27.507 35.487,27.545ZM39.187,26.719L34.625,22.146C34.53,22.057 34.569,21.939 34.581,21.876L36.224,18.604C36.3,18.472 36.4,18.435 36.519,18.435L39.388,18.435C39.47,18.435 39.52,18.518 39.47,18.618L38.696,20.36C38.685,20.397 38.659,20.525 38.76,20.587L39.817,21.286C39.942,21.374 40.049,21.286 40.088,21.211C40.113,21.141 41.22,18.606 41.22,18.606C41.302,18.474 41.377,18.437 41.515,18.437L42.484,18.437C42.523,18.437 42.635,18.463 42.573,18.606C42.509,18.752 41.774,20.438 41.774,20.438C41.76,20.476 41.736,20.601 41.842,20.672L42.893,21.362C43.026,21.456 43.127,21.362 43.164,21.287C43.208,21.212 44.341,18.632 44.428,18.413C44.738,17.706 44.612,16.53 43.208,16.53L41.648,16.53C41.464,16.53 41.427,16.392 41.427,16.335L41.427,10.939C41.427,10.724 41.539,10.605 41.698,10.592C41.76,10.58 44.636,10.139 44.636,10.139C45.704,11.882 46.322,13.932 46.322,16.121C46.321,20.939 43.369,25.034 39.187,26.719Z" style="fill:rgb(195,0,45);fill-rule:nonzero;"/>
                </g>
            </g>
        </g>
    </g>
</svg>
